<svg width="36" height="37" viewBox="0 0 36 37" fill="none" xmlns="http://www.w3.org/2000/svg">
<path d="M17.9985 11.1439C16.159 11.1439 14.3948 11.8736 13.094 13.1725C11.7933 14.4714 11.0625 16.2331 11.0625 18.07C11.0625 19.9069 11.7933 21.6686 13.094 22.9675C14.3948 24.2664 16.159 24.9961 17.9985 24.9961C19.838 24.9961 21.6022 24.2664 22.903 22.9675C24.2037 21.6686 24.9345 19.9069 24.9345 18.07C24.9345 16.2331 24.2037 14.4714 22.903 13.1725C21.6022 11.8736 19.838 11.1439 17.9985 11.1439ZM17.9985 22.5681C16.8034 22.5681 15.6573 22.094 14.8123 21.2502C13.9672 20.4064 13.4925 19.2619 13.4925 18.0685C13.4925 16.8752 13.9672 15.7307 14.8123 14.8868C15.6573 14.043 16.8034 13.569 17.9985 13.569C19.1936 13.569 20.3397 14.043 21.1847 14.8868C22.0298 15.7307 22.5045 16.8752 22.5045 18.0685C22.5045 19.2619 22.0298 20.4064 21.1847 21.2502C20.3397 22.094 19.1936 22.5681 17.9985 22.5681Z" fill="white" fill-opacity="0.78"/>
<path d="M25.209 12.504C26.102 12.504 26.826 11.7811 26.826 10.8893C26.826 9.99758 26.102 9.27466 25.209 9.27466C24.316 9.27466 23.592 9.99758 23.592 10.8893C23.592 11.7811 24.316 12.504 25.209 12.504Z" fill="white" fill-opacity="0.78"/>
<path d="M30.7995 9.24768C30.4523 8.35223 29.9216 7.53905 29.2415 6.86018C28.5614 6.18132 27.7469 5.65173 26.85 5.30532C25.8005 4.91192 24.6918 4.6992 23.571 4.67622C22.1265 4.61331 21.669 4.59534 18.006 4.59534C14.343 4.59534 13.8735 4.59534 12.441 4.67622C11.3211 4.69803 10.2131 4.91079 9.16501 5.30532C8.26791 5.65133 7.45315 6.18077 6.77301 6.85969C6.09286 7.53861 5.56235 8.352 5.21551 9.24768C4.82146 10.2956 4.60893 11.4029 4.58701 12.522C4.52251 13.9629 4.50301 14.4198 4.50301 18.079C4.50301 21.7368 4.50301 22.2026 4.58701 23.6361C4.60951 24.7565 4.82101 25.8619 5.21551 26.9119C5.56332 27.8073 6.09435 28.6203 6.77466 29.2992C7.45497 29.978 8.2696 30.5076 9.16651 30.8543C10.2127 31.2635 11.3211 31.4914 12.444 31.5283C13.8885 31.5912 14.346 31.6107 18.009 31.6107C21.672 31.6107 22.1415 31.6107 23.574 31.5283C24.6947 31.5055 25.8034 31.2933 26.853 30.9007C27.7496 30.5535 28.5639 30.0234 29.244 29.3444C29.924 28.6653 30.4548 27.8522 30.8025 26.9568C31.197 25.9083 31.4085 24.8029 31.431 23.6825C31.4955 22.2416 31.515 21.7847 31.515 18.1255C31.515 14.4662 31.515 14.0019 31.431 12.5684C31.4135 11.4335 31.1999 10.31 30.7995 9.24768ZM28.9725 23.5253C28.9628 24.3885 28.805 25.2437 28.506 26.0536C28.2807 26.6361 27.9359 27.1651 27.4936 27.6064C27.0513 28.0478 26.5214 28.3919 25.938 28.6165C25.1358 28.9137 24.2885 29.0713 23.433 29.0823C22.008 29.1482 21.606 29.1647 17.952 29.1647C14.295 29.1647 13.9215 29.1647 12.4695 29.0823C11.6144 29.0719 10.7675 28.9143 9.96601 28.6165C9.38054 28.3933 8.84851 28.0498 8.40434 27.6084C7.96017 27.1669 7.61376 26.6372 7.38751 26.0536C7.09268 25.2524 6.93497 24.4073 6.92101 23.5537C6.85651 22.1308 6.84151 21.7293 6.84151 18.0805C6.84151 14.4303 6.84151 14.0573 6.92101 12.6059C6.9307 11.7431 7.08849 10.8885 7.38751 10.079C7.84501 8.89718 8.78251 7.96701 9.96601 7.51466C10.7679 7.21829 11.6145 7.06076 12.4695 7.04883C13.896 6.98442 14.2965 6.96644 17.952 6.96644C21.6075 6.96644 21.9825 6.96644 23.433 7.04883C24.2886 7.05911 25.136 7.21669 25.938 7.51466C26.5214 7.73975 27.0512 8.08415 27.4935 8.52576C27.9357 8.96737 28.2806 9.49643 28.506 10.079C28.8008 10.8803 28.9585 11.7254 28.9725 12.5789C29.037 14.0034 29.0535 14.4033 29.0535 18.0536C29.0535 21.7024 29.0535 22.0948 28.989 23.5268H28.9725V23.5253Z" fill="white" fill-opacity="0.78"/>
</svg>
