<svg width="36" height="37" viewBox="0 0 36 37" fill="none" xmlns="http://www.w3.org/2000/svg">
<path d="M29.4495 12.0726C29.469 12.3347 29.469 12.5954 29.469 12.856C29.469 20.8321 23.3895 30.0229 12.279 30.0229C8.856 30.0229 5.676 29.0329 3 27.3133C3.486 27.3687 3.954 27.3882 4.4595 27.3882C7.17899 27.3948 9.82147 26.4867 11.961 24.8104C10.7001 24.7876 9.47786 24.3722 8.46486 23.6222C7.45185 22.8722 6.69868 21.825 6.3105 20.6269C6.684 20.6823 7.059 20.7197 7.452 20.7197C7.9935 20.7197 8.538 20.6448 9.0435 20.5145C7.67514 20.2386 6.44471 19.498 5.56143 18.4186C4.67815 17.3391 4.19654 15.9875 4.1985 14.5935V14.5186C5.004 14.9665 5.9385 15.2466 6.9285 15.284C6.09913 14.7337 5.41908 13.9869 4.94901 13.1103C4.47894 12.2337 4.23347 11.2546 4.2345 10.2602C4.2345 9.13981 4.533 8.11228 5.0565 7.21656C6.57471 9.08142 8.46825 10.6071 10.6145 11.6946C12.7608 12.7822 15.1118 13.4075 17.5155 13.53C17.4225 13.0807 17.3655 12.6148 17.3655 12.1475C17.3651 11.3551 17.5211 10.5703 17.8246 9.83817C18.1281 9.10599 18.5732 8.44072 19.1343 7.88039C19.6954 7.32006 20.3616 6.87566 21.0949 6.5726C21.8281 6.26953 22.6139 6.11374 23.4075 6.11414C25.1475 6.11414 26.718 6.84209 27.822 8.01941C29.1747 7.75821 30.4718 7.26512 31.656 6.562C31.2051 7.95622 30.2606 9.13847 28.9995 9.88724C30.1992 9.7506 31.3717 9.43556 32.478 8.95258C31.6517 10.1555 30.6278 11.2104 29.4495 12.0726Z" fill="white" fill-opacity="0.78"/>
</svg>
