<?xml version="1.0" standalone="no"?>
<!DOCTYPE svg PUBLIC "-//W3C//DTD SVG 20010904//EN"
 "http://www.w3.org/TR/2001/REC-SVG-20010904/DTD/svg10.dtd">
<svg version="1.0" xmlns="http://www.w3.org/2000/svg"
 width="624.000000pt" height="624.000000pt" viewBox="0 0 624.000000 624.000000"
 preserveAspectRatio="xMidYMid meet">
<metadata>
Created by potrace 1.14, written by Peter Selinger 2001-2017
</metadata>
<g transform="translate(0.000000,624.000000) scale(0.100000,-0.100000)"
fill="#000000" stroke="none">
<path d="M1298 6085 c-3 -3 -32 -8 -65 -10 -118 -8 -264 -46 -398 -105 -53
-23 -203 -107 -221 -125 -6 -5 -26 -21 -44 -35 -86 -64 -232 -224 -292 -320
-43 -70 -87 -158 -81 -164 3 -3 2 -6 -3 -6 -6 0 -18 -24 -28 -52 -10 -29 -20
-60 -23 -68 -3 -8 -7 -19 -8 -25 -2 -5 -10 -37 -18 -70 -9 -33 -19 -82 -24
-110 -16 -98 -10 -3920 7 -3920 1 0 3 -16 5 -37 4 -40 63 -228 77 -243 4 -5 8
-14 8 -21 0 -17 86 -169 129 -229 70 -98 165 -195 259 -266 37 -27 76 -57 87
-65 44 -34 245 -125 330 -149 192 -55 118 -53 2155 -51 1037 1 1896 5 1910 9
14 3 41 8 60 11 46 6 180 43 202 56 10 6 25 10 33 10 8 0 15 5 15 12 0 6 3 8
6 5 4 -4 43 12 88 35 221 115 396 282 525 501 28 48 51 91 51 95 0 4 6 19 14
33 13 26 56 147 60 172 1 7 5 21 9 32 7 22 14 57 25 130 10 70 9 3819 -2 3880
-12 74 -13 76 -27 125 -7 25 -13 51 -15 57 -1 7 -15 45 -30 85 -67 177 -165
323 -312 466 -52 50 -98 92 -103 92 -4 0 -14 6 -21 13 -25 22 -77 57 -87 57
-5 0 -11 3 -13 8 -12 28 -268 131 -388 156 -125 25 -327 39 -337 24 -2 -5 -13
-4 -23 2 -13 7 -21 7 -25 0 -4 -6 -12 -7 -18 -3 -15 11 -488 9 -505 -1 -7 -4
-12 -4 -12 1 0 6 -147 7 -335 3 -5 0 -26 1 -45 2 -20 1 -41 -1 -47 -5 -6 -4
-14 -4 -16 0 -6 10 -489 9 -505 -1 -7 -4 -12 -4 -12 1 0 6 -147 7 -335 3 -5 0
-26 1 -45 2 -20 1 -41 -1 -47 -5 -6 -4 -14 -4 -16 0 -6 10 -489 9 -505 -1 -7
-4 -12 -4 -12 1 0 6 -147 7 -335 3 -5 0 -26 1 -45 2 -20 1 -41 -1 -47 -5 -6
-4 -14 -4 -16 0 -6 10 -529 9 -544 0 -6 -4 -13 -2 -15 4 -2 5 -6 7 -10 4z"/>
</g>
</svg>
