<svg width="38" height="39" viewBox="0 0 38 39" fill="none" xmlns="http://www.w3.org/2000/svg">
<rect y="0.98291" width="38" height="37.9457" rx="8" fill="#FF6E30"/>
<path fill-rule="evenodd" clip-rule="evenodd" d="M19.9645 13.4009C19.632 13.4009 19.3089 13.4419 19 13.519C19.1988 11.728 19.9148 10.0938 20.9963 8.7666C25.2971 9.27559 28.6332 12.9303 28.6332 17.3623V23.6798C28.4605 23.6894 28.2864 23.6943 28.1112 23.6943C24.6706 23.6943 21.6709 21.8013 20.1028 18.9994H23.9315V17.3623C23.9315 15.1745 22.1554 13.4009 19.9645 13.4009Z" fill="white"/>
<path fill-rule="evenodd" clip-rule="evenodd" d="M9.25642 17.9093C9.25642 12.5912 13.5738 8.28003 18.8995 8.28003C21.5623 8.28003 23.9731 9.35782 25.7182 11.1004C24.1095 9.49404 21.9351 8.45261 19.5191 8.29963C17.894 10.0956 16.9044 12.4759 16.9044 15.087C16.9044 15.2818 16.9099 15.4752 16.9208 15.6673C16.299 16.2149 15.9068 17.0164 15.9068 17.9093V18.5734H21.8922L17.5214 18.5734C18.9445 22.449 22.672 25.2143 27.0462 25.2143C27.5546 25.2143 28.0543 25.177 28.5425 25.1049V29.1988H21.8922V25.2143H15.9068V29.1988H9.25642V21.8938V17.9093Z" fill="white"/>
</svg>
