<svg width="101" height="97" viewBox="0 0 101 97" fill="none" xmlns="http://www.w3.org/2000/svg">
<path d="M43.5122 6.57674L48.9448 14.5524C46.4471 16.1545 43.4636 18.6465 39.9944 22.0283C36.6826 25.4648 33.4428 29.4557 30.2749 34.001C27.3193 38.4435 25.2568 43.1083 24.0876 47.9953C26.2503 47.8648 28.2762 48.1278 30.1654 48.7844C33.6288 49.9882 36.1309 52.1812 37.6715 55.3634C39.4243 58.4429 39.6168 61.9505 38.2488 65.8862C36.662 70.4516 34.038 73.6861 30.3768 75.5896C26.7703 77.3357 22.9205 77.4974 18.8274 76.0748C12.6877 73.9408 8.7822 70.2013 7.111 64.8564C5.65195 59.4088 6.04413 53.4577 8.28755 47.0031C9.76492 42.7525 12.197 38.0397 15.5836 32.8648C19.1278 27.7445 23.3016 22.8431 28.1051 18.1606C32.9087 13.4781 38.0444 9.6168 43.5122 6.57674ZM86.9625 21.6788L92.3951 29.6544C89.8974 31.2565 86.9139 33.7485 83.4447 37.1303C80.1329 40.5669 76.8931 44.5578 73.7252 49.103C70.7696 53.5456 68.7071 58.2103 67.5379 63.0973C69.7006 62.9668 71.7265 63.2299 73.6157 63.8865C77.0791 65.0903 79.5812 67.2832 81.1218 70.4654C82.8746 73.5449 83.0671 77.0525 81.6991 80.9882C80.1123 85.5537 77.4883 88.7881 73.8271 90.6916C70.2206 92.4377 66.3708 92.5994 62.2777 91.1768C56.138 89.0428 52.2325 85.3034 50.5613 79.9584C49.1022 74.5108 49.4944 68.5597 51.7379 62.1051C53.2152 57.8546 55.6473 53.1418 59.0339 47.9668C62.5781 42.8465 66.7519 37.9452 71.5554 33.2626C76.359 28.5801 81.4947 24.7188 86.9625 21.6788Z" fill="url(#paint0_linear_68_8)"/>
<defs>
<linearGradient id="paint0_linear_68_8" x1="66.9532" y1="2.11655" x2="-251.974" y2="320.507" gradientUnits="userSpaceOnUse">
<stop stop-color="#FCFCFC" stop-opacity="0"/>
<stop offset="1" stop-color="white" stop-opacity="0.5"/>
</linearGradient>
</defs>
</svg>
